<svg xmlns="http://www.w3.org/2000/svg" width="82.76" height="35" viewBox="0 0 82.76 35"><rect class="svg__rect" x="0" y="0" width="82.76" height="35" fill="#31C4F3"/><rect class="svg__rect" x="82.76" y="0" width="0" height="35" fill="#389AD5"/><path class="svg__text" d="M15.70 22L14.22 22L14.22 13.47L15.70 13.47L19.51 19.54L19.51 13.47L20.98 13.47L20.98 22L19.50 22L15.70 15.95L15.70 22ZM25.46 18.00L25.46 18.00L25.46 17.52Q25.46 16.28 25.90 15.32Q26.34 14.37 27.15 13.86Q27.95 13.35 28.99 13.35Q30.04 13.35 30.84 13.85Q31.65 14.35 32.09 15.29Q32.53 16.23 32.53 17.48L32.53 17.48L32.53 17.96Q32.53 19.21 32.10 20.16Q31.67 21.10 30.86 21.61Q30.06 22.12 29.01 22.12L29.01 22.12Q27.97 22.12 27.16 21.61Q26.35 21.10 25.90 20.17Q25.46 19.23 25.46 18.00ZM26.94 17.46L26.94 17.96Q26.94 19.36 27.49 20.13Q28.03 20.90 29.01 20.90L29.01 20.90Q29.99 20.90 30.52 20.15Q31.05 19.40 31.05 17.96L31.05 17.96L31.05 17.51Q31.05 16.09 30.52 15.34Q29.98 14.58 28.99 14.58L28.99 14.58Q28.03 14.58 27.49 15.33Q26.95 16.09 26.94 17.46L26.94 17.46ZM38.68 14.66L36.04 14.66L36.04 13.47L42.81 13.47L42.81 14.66L40.15 14.66L40.15 22L38.68 22L38.68 14.66ZM48.13 22L46.65 22L46.65 13.47L48.13 13.47L48.13 22ZM52.67 18.00L52.67 18.00L52.67 17.52Q52.67 16.28 53.11 15.32Q53.56 14.37 54.36 13.86Q55.17 13.35 56.21 13.35Q57.25 13.35 58.06 13.85Q58.87 14.35 59.31 15.29Q59.74 16.23 59.75 17.48L59.75 17.48L59.75 17.96Q59.75 19.21 59.32 20.16Q58.88 21.10 58.08 21.61Q57.27 22.12 56.22 22.12L56.22 22.12Q55.19 22.12 54.37 21.61Q53.56 21.10 53.12 20.17Q52.68 19.23 52.67 18.00ZM54.15 17.46L54.15 17.96Q54.15 19.36 54.70 20.13Q55.25 20.90 56.22 20.90L56.22 20.90Q57.21 20.90 57.74 20.15Q58.27 19.40 58.27 17.96L58.27 17.96L58.27 17.51Q58.27 16.09 57.73 15.34Q57.20 14.58 56.21 14.58L56.21 14.58Q55.25 14.58 54.71 15.33Q54.17 16.09 54.15 17.46L54.15 17.46ZM65.70 22L64.22 22L64.22 13.47L65.70 13.47L69.51 19.54L69.51 13.47L70.98 13.47L70.98 22L69.50 22L65.70 15.95L65.70 22Z" fill="#FFFFFF"/><path class="svg__text" d="" fill="#FFFFFF" x="95.76"/></svg>